<svg xmlns="http://www.w3.org/2000/svg" viewBox="0 0 32 32" fill="none">
  <rect width="32" height="32" rx="8" fill="#1e1b4b"/>
  <rect width="32" height="32" rx="8" fill="url(#grad)"/>
  <defs>
    <linearGradient id="grad" x1="0" y1="0" x2="32" y2="32" gradientUnits="userSpaceOnUse">
      <stop stop-color="#7c3aed"/>
      <stop offset="1" stop-color="#3b82f6"/>
    </linearGradient>
  </defs>
  <path d="M8 20c0-3.5 2.5-6 6-6 .5 0 1 .1 1.5.2C16.3 12.3 18 11 20 11c2.8 0 5 2.2 5 5 0 .2 0 .4-.1.6 1.2.5 2.1 1.6 2.1 2.9 0 1.8-1.5 3.2-3.2 3.2H10.5C9 22.7 8 21.5 8 20z" fill="white" fill-opacity="0.9"/>
</svg>
